<?xml version="1.0" encoding="utf-8"?>
<!-- Generator: Adobe Illustrator 23.0.2, SVG Export Plug-In . SVG Version: 6.00 Build 0)  -->
<svg version="1.1" id="Layer_1" xmlns="http://www.w3.org/2000/svg" xmlns:xlink="http://www.w3.org/1999/xlink" x="0px" y="0px"
	 viewBox="0 0 500 96.6" style="enable-background:new 0 0 500 96.6;" xml:space="preserve">
<style type="text/css">
	.st0{fill-rule:evenodd;clip-rule:evenodd;fill:url(#SVGID_1_);}
	.st1{fill:#02D4FA;}
	.st2{fill:#FDD775;}
	.st3{fill:#FDEBB3;}
	.st4{fill:#FCD962;}
	.st5{fill:#FCD34E;}
	.st6{fill:#FAC076;}
	.st7{fill:#FCD965;}
	.st8{fill:#F8B268;}
	.st9{fill:#FDEBB1;}
	.st10{fill:#F8BF7B;}
	.st11{fill:#F9C389;}
	.st12{fill:#FCE7B2;}
	.st13{fill:#F4DA85;}
	.st14{fill:#FDEAAD;}
	.st15{fill:#FDDE7C;}
	.st16{fill:#FECC42;}
	.st17{fill:#F7AA45;}
	.st18{fill:#443AD5;}
	.st19{fill:#7070E6;}
</style>
<title>Tailwind CSS</title>
<g>
	
		<linearGradient id="SVGID_1_" gradientUnits="userSpaceOnUse" x1="44.2048" y1="-79.857" x2="181.2362" y2="-158.8661" gradientTransform="matrix(1 0 0 -1 -47.66 -72.0034)">
		<stop  offset="0" style="stop-color:#2298BD"/>
		<stop  offset="1" style="stop-color:#0ED7B5"/>
	</linearGradient>
	<path class="st0" d="M66.7,8.3c-17.8,0-28.9,8.9-33.3,26.7c6.7-8.9,14.4-12.2,23.3-10c5.1,1.3,8.7,4.9,12.7,9
		c6.5,6.6,14.1,14.3,30.6,14.3c17.8,0,28.9-8.9,33.3-26.7c-6.7,8.9-14.4,12.2-23.3,10c-5.1-1.3-8.7-4.9-12.7-9
		C90.8,16,83.2,8.3,66.7,8.3z M33.3,48.3C15.6,48.3,4.4,57.2,0,74.9c6.7-8.9,14.4-12.2,23.3-10c5.1,1.3,8.7,4.9,12.7,9
		c6.5,6.6,14.1,14.3,30.6,14.3c17.8,0,28.9-8.9,33.3-26.7c-6.7,8.9-14.4,12.2-23.3,10c-5.1-1.3-8.7-4.9-12.7-9
		C57.4,56,49.9,48.3,33.3,48.3z"/>
	<g>
		<g>
			<path class="st1" d="M251.8,20c-0.3,2.1-0.8,5.7-1.4,9.4c-0.2,1.2,0.1,1.6,1.2,2c4.9,1.5,9.7,3.4,13.8,6.6
				c1.8,1.4,3.5,3.1,4.9,4.9c3,4.2,2.2,8.6-1,12.3c-4.1,4.8-9.6,7.3-15.3,9.5c-0.7,0.3-1.5,0.6-2.2,0.7c-1.1,0.2-1.3,0.7-1,1.8
				c1,3.9,1.5,7.9,1.4,12c-0.1,3.5-0.7,7-2.3,10.2c-2.6,5.1-6.8,6.1-11.6,5.1c-5.4-1.1-9.9-4-14-7.4c-1.1-0.9-2.2-1.8-3.2-2.8
				c-0.7-0.6-1.1-0.6-1.7,0c-3.2,3.1-6.8,5.7-10.8,7.8c-2.8,1.5-5.8,2.6-9.1,2.7c-5.5,0.1-8.8-2.5-10.4-7.7
				c-1.3-4.4-1.4-8.8-0.8-13.3c0.3-2.1,0.6-4.1,1.1-6.2c0.3-1.1-0.1-1.6-1.1-2c-3.4-1.3-6.8-2.7-10-4.3c-3.2-1.6-5.9-3.8-8.1-6.6
				c-3.3-4.3-3.1-8.9,0.3-13.2c2.1-2.6,4.8-4.6,7.7-6c3.3-1.6,6.7-2.9,10.2-4.2c1-0.4,1.4-0.7,1.1-1.9c-1.1-4.2-1.6-8.5-1.5-12.9
				c0.1-3.8,0.7-7.6,3-10.8c2.2-3.2,5.5-4.2,9.2-3.7c5.4,0.7,9.9,3.4,14.2,6.5c1.6,1.1,3,2.4,4.4,3.7c1.2,1.1,1.3,1.1,2.6,0
				c2.1-1.8,4.2-3.6,6.4-5.2c3.5-2.5,7.3-4.4,11.6-5.1c4.8-0.7,8.3,1.1,10.5,5.4C251.4,10.7,251.7,14.5,251.8,20z M219.4,64.8
				C219.4,64.8,219.4,64.8,219.4,64.8c2.9,0,5.9,0,8.8,0c0.5,0,1.3-0.4,1.6-0.9c2.9-4.9,5.7-9.8,8.5-14.8c0.2-0.4,0.3-1.2,0-1.6
				c-2.8-5-5.7-10-8.7-15c-0.2-0.4-0.8-0.7-1.2-0.7c-1.8-0.2-3.6-0.3-5.3-0.3c-3.9,0-7.9,0.1-11.8,0.3c-0.5,0-1.2,0.4-1.5,0.9
				c-2.9,4.9-5.7,9.7-8.5,14.6c-0.3,0.5-0.3,1.4,0,1.9c2.8,4.9,5.6,9.8,8.5,14.7c0.3,0.4,1,0.8,1.5,0.8
				C213.9,64.8,216.7,64.8,219.4,64.8z M172,47.7c0,2.2,1.3,4.5,3.2,6.1c4.2,3.6,9.1,5.9,14.3,7.5c0.8,0.3,1.1-0.1,1.4-0.8
				c1.5-3.9,3-7.7,4.5-11.6c0.1-0.4,0.2-0.9,0.1-1.2c-1.5-3.9-3-7.7-4.5-11.6c-0.3-0.8-0.7-0.9-1.4-0.7c-0.7,0.3-1.5,0.5-2.2,0.7
				c-4.7,1.7-9.2,3.7-12.8,7.2C173.2,44.7,172.1,46.2,172,47.7z M191.9,78.7c0.1,0,0.2,0,0.3,0.1c0,0.8-0.1,1.6,0,2.3
				c0.4,2.1,0.8,4.2,1.5,6.3c0.5,1.5,1.7,2.8,3.5,2.8c1.7,0,3.4-0.1,5-0.6c5-1.6,9.2-4.7,13.1-8.1c1.2-1.1,1.2-1.2,0.1-2.4
				c-0.2-0.2-0.3-0.3-0.5-0.5c-2.1-2.6-4.3-5.2-6.3-7.9c-0.7-1-1.5-1.5-2.6-1.6c-3.8-0.5-7.5-1-11.2-1.6c-0.9-0.1-1.3,0.1-1.5,1
				C193,71.8,192.4,75.2,191.9,78.7z M247.6,78.1c-0.5-3.4-1-6.7-1.5-9.9c-0.1-0.9-0.6-1.2-1.5-1c-3.9,0.6-7.9,1.2-11.8,1.9
				c-0.6,0.1-1.3,0.5-1.6,0.9c-2.5,3.1-4.9,6.2-7.4,9.4c-0.5,0.7-0.6,1.2,0.1,1.7c1.8,1.4,3.5,3,5.3,4.3c2.7,2,5.6,3.6,8.8,4.5
				c4.3,1.2,6.9-0.1,8.1-4.3C247,83.2,247.2,80.6,247.6,78.1z M198.3,6.4c-1.9-0.1-3.4,0.8-4.4,2.7c-1.1,2.1-1.5,4.5-1.6,6.8
				c-0.2,4.2,0.4,8.4,1.3,12.5c0.2,0.9,0.5,1.1,1.4,0.9c3.9-0.7,7.8-1.2,11.7-1.9c0.6-0.1,1.3-0.5,1.7-1c2.6-3.1,5.1-6.2,7.6-9.3
				c0.4-0.5,0.5-0.9,0-1.4c-3-2.7-6.2-5.2-9.8-7.1C203.7,7.5,201.3,6.5,198.3,6.4z M247.4,18.3c-0.1,0-0.2,0-0.3,0
				c0-0.9,0-1.8,0-2.7c-0.2-2.5-0.6-4.9-2-7.1c-1-1.7-2.6-2.5-4.5-2.2c-1.5,0.2-3,0.5-4.4,1.1c-4.8,1.9-8.8,5.1-12.6,8.5
				c-0.5,0.4-0.4,0.8,0,1.3c0.5,0.5,1,1,1.4,1.5c2.1,2.6,4.1,5.3,6.2,7.9c0.3,0.4,0.7,0.8,1.2,0.8c4,0.7,8.1,1.3,12.1,1.9
				c0.9,0.1,1.3-0.1,1.4-1C246.4,25.1,246.9,21.7,247.4,18.3z M267.4,47.9c-0.3-2.1-1.7-3.7-3.3-5.2c-4.1-3.6-9.1-5.5-14.2-7.2
				c-0.8-0.3-1.1,0-1.4,0.8c-1.4,3.7-2.9,7.4-4.3,11.1c-0.2,0.4-0.2,1.1,0,1.5c1.5,3.9,3.1,7.7,4.6,11.5c0.3,0.6,0.6,0.8,1.2,0.6
				c5.5-1.8,10.7-4,14.9-8.2C266.3,51.6,267.4,50.1,267.4,47.9z M235.3,64c0.5,0,0.8,0.1,1.1,0.1c2.4-0.4,4.7-0.9,7.1-1.2
				c0.9-0.1,1.1-0.5,0.8-1.3c-0.9-2.3-1.8-4.6-2.7-6.9c-0.1-0.2-0.3-0.4-0.5-0.7C239.2,57.2,237.3,60.5,235.3,64z M204.1,64.3
				c0-0.1,0.1-0.2,0.1-0.3c-1.9-3.3-3.8-6.6-5.8-9.9c-0.1,0-0.2,0-0.3,0c-0.9,2.6-1.9,5.3-2.8,8c-0.1,0.2,0.3,0.8,0.6,0.8
				C198.6,63.4,201.3,63.8,204.1,64.3z M219.9,77c2.1-2.6,3.9-4.8,5.9-7.3c-4.1,0-7.9,0-12,0C215.9,72.3,217.8,74.5,219.9,77z
				 M241,42.6c0.1,0,0.2,0,0.3,0.1c0.9-2.6,1.9-5.1,2.8-7.7c0.3-0.7-0.3-1-0.8-1.1c-1.7-0.3-3.3-0.6-5-0.9c-0.9-0.2-1.9-0.3-3-0.4
				C237.3,36,239.1,39.3,241,42.6z M204.3,32.4c-3,0.5-5.7,1-8.3,1.5c-0.8,0.1-0.7,0.6-0.5,1.2c0.6,1.7,1.2,3.5,1.9,5.2
				c0.3,0.7,0.6,1.5,1,2.5C200.4,39.2,202.2,36,204.3,32.4z M225.4,27c0.1-0.1,0.2-0.2,0.2-0.3c-1.8-2.1-3.6-4.2-5.4-6.3
				c-0.1-0.1-0.9,0-1.1,0.2c-1.4,1.5-2.7,3.1-4,4.6c-0.4,0.5-0.8,1-1.3,1.7C217.9,27,221.6,27,225.4,27z"/>
			<path class="st1" d="M219.8,57.6c-5.3,0-9.4-4.2-9.4-9.4c0-5.2,4.2-9.3,9.4-9.4c5,0,9.3,4.3,9.3,9.4
				C229.2,53.2,224.9,57.6,219.8,57.6z"/>
		</g>
	</g>
	<g>
		<path class="st2" d="M306.6,63c8.2,0,16.5,0,24.7,0c0.5,0,0.9,0,1.4,0c0.5,0.7,0.8,1.4,1.4,1.9c1,1,1.9,2.2,3.5,2.4
			c0,4.3,0,8.7,0.1,13c0,4.1,0,8.1,0,12.2c0,0.5,0,1,0,1.9c-0.7-0.6-1.1-0.9-1.4-1.3c-9.6-9.6-19.2-19.2-28.7-28.7
			c-0.2-0.2-0.4-0.5-0.6-0.7c-0.1-0.1-0.2-0.2-0.3-0.3c0,0,0,0,0,0C306.6,63.3,306.6,63.2,306.6,63z"/>
		<path class="st3" d="M332.7,63c-0.5,0-0.9,0-1.4,0c-0.3-0.5-0.5-1.2-0.9-1.6c-5.8-5.9-11.7-11.7-17.5-17.5
			c-0.1-0.1-0.3-0.2-0.4-0.4c-0.2-0.3-0.4-0.7-0.6-1c0.4-0.1,0.8-0.3,1.1-0.3c5.6,0,11.3,0,16.9,0c0.6,0,1.1-0.2,1.7-0.4
			c2,1,4,1,6,0.1c0,7.1,0,14.1,0,21.2C336,63,334.4,63,332.7,63z"/>
		<path class="st4" d="M372.7,46.6c0-0.1-0.1-0.1-0.1-0.2c-0.5-0.5-0.9-1-1.4-1.4c-0.1,0-0.1,0-0.2-0.1c-0.4-1.4-1.3-2.3-2.8-2.8
			c0-0.1-0.1-0.1-0.1-0.2c-0.4-0.5-0.9-1-1.3-1.5c-0.2-0.2-0.4-0.4-0.6-0.5c-0.1-0.7-0.2-1.3-0.3-2c1.4-0.3,0.7-1.5,0.9-2.3
			c0.2-0.6,0-1.6-0.5-1.9c-0.4-0.4-1.3-0.2-2-0.3c-0.4,0-0.9,0.3-1.1,0.1c-1.2-0.9-3.4-0.2-4-2.3c0-0.1-0.3-0.1-0.5-0.1
			c-0.3-0.1-0.6-0.1-0.9-0.3c-1.5-0.7-1.7-2.1-1.6-3.5c0.2,0,0.4,0,0.6,0c0.2,0,0.5,0.1,0.7,0.1c-0.1-0.1-0.3-0.3-0.4-0.4
			c-0.5-0.6-0.9-1.2-1.4-1.8c-0.3-0.4-0.6-0.8-0.9-1.3c0-0.1,0-0.2,0-0.3c6.9,0,13.9,0,20.8,0c0,8.3,0,16.6,0,24.8
			C374.7,47.9,373.7,47.2,372.7,46.6z"/>
		<path class="st5" d="M337.7,41.8c-2,0.9-4,1-6-0.1c-8.5-8.4-16.9-16.9-25.4-25.3c0.1-0.2,0.1-0.3,0.2-0.5c3.3,0,6.6,0,9.8,0
			c0.3,0,0.6,0,0.9,0c0.2,0.3,0.3,0.7,0.5,0.9c2,2,4.1,3.9,6,5.9c4.1,4.1,8.2,8.3,12.3,12.4c0.4,0.4,1,0.5,1.5,0.7
			C337.6,38,337.6,39.9,337.7,41.8z"/>
		<path class="st6" d="M337.6,36c-0.5-0.2-1.2-0.4-1.5-0.7c-4.1-4.1-8.2-8.3-12.3-12.4c-2-2-4-3.9-6-5.9c-0.2-0.2-0.4-0.6-0.5-0.9
			c4.3,0,8.6,0,13,0c1.1,0,1.6-0.2,1.5-1.4c-0.1-1.3,0-2.6,0-3.9c1.6,0,3.2-0.1,4.9,0c0.4,0,1.1,0.5,1.2,0.8c0.2,1,0.1,2.1,0.1,3.1
			c0,4.3,0,8.5,0,12.8C337.7,30.3,337.6,33.2,337.6,36z"/>
		<path class="st7" d="M337.7,27.4c0-4.3,0-8.5,0-12.8c0-1,0.1-2.1-0.1-3.1c0-0.3-0.7-0.7-1.2-0.8c-1.6-0.1-3.2,0-4.9,0c0,0,0,0,0,0
			c0.1-0.6,0.2-1.3,0.2-1.9c0-2.1,0-4.2,0-6.6c0.6,0.5,0.9,0.7,1.1,0.9c6.5,6.4,12.9,12.9,19.3,19.3c0.3,0.3,0.4,0.9,0.7,1.3
			c-0.6,0-1.3-0.1-1.9,0.1c-0.2,0-0.5,0.8-0.4,0.9c1.6,1.5,3.1,3.2,5.6,2.7c0,1.4,0.2,2.8,1.6,3.5c0.3,0.1,0.6,0.2,0.9,0.3
			c0.2,0,0.4,0,0.5,0.1c0.6,2.1,2.8,1.4,4,2.3c0.2,0.2,0.8-0.2,1.1-0.1c0.7,0,1.6-0.1,2,0.3c0.4,0.4,0.6,1.4,0.5,1.9
			c-0.2,0.8,0.5,2-0.9,2.3c0-0.8,0.1-1.6-0.1-2.3c-0.1-0.5-0.7-1.1-1.1-1.2c-1.4-0.2-2.9-0.2-4.4-0.3c-0.3-0.2-0.7-0.4-1-0.6
			c-1.8-1.8-3.5-3.6-5.4-5.4c-0.4-0.4-1-0.7-1.6-0.7C347.6,27.4,342.6,27.4,337.7,27.4z"/>
		<path class="st8" d="M355.4,94.8c-3.1,0-6.2-0.1-9.3-0.1c-0.3,0-0.6,0-0.9,0c-0.1,0-0.2,0-0.3-0.1c-0.1-0.1-0.1-0.2-0.2-0.3
			c0,0,0,0,0,0c0-0.2,0-0.4,0-0.6c0-8.2,0-16.5,0-24.7c0.3,0,0.5,0,0.8,0c3.2,3.1,6.3,6.3,9.5,9.4c0.2,0.2,0.4,0.5,0.6,0.7
			c0,0.1,0,0.2,0,0.3c0,5,0,10,0,15C355.5,94.7,355.4,94.7,355.4,94.8z"/>
		<path class="st9" d="M359.4,33.5c0.3,0.2,0.7,0.4,1,0.6c1.2,1.3,2.4,2.7,3.6,3.9c0.7,0.7,1.5,1.3,2.2,1.9c0.2,0.2,0.4,0.4,0.6,0.5
			c0,0.1,0,0.2,0,0.3c-1-0.1-0.8,0.6-0.8,1.2c0,3.6,0,7.2,0,10.7c-0.7,0.1-1.3,0.1-2,0.2c-0.2,0-0.5,0-0.7,0
			c-1.2-1.3-2.5-2.6-3.7-3.8c-4-4.1-8-8.2-12-12.2c-0.8-0.8-1.7-1.3-2.6-1.9c-0.1-1,0.6-0.8,1.2-0.8c4,0,7.9,0,11.9,0
			C358.5,34.1,358.9,33.7,359.4,33.5z"/>
		<path class="st5" d="M344.9,34.9c0.9,0.6,1.8,1.2,2.6,1.9c4,4,8,8.1,12,12.2c1.3,1.3,2.5,2.6,3.7,3.8c-0.8,0-1.5-0.1-2.3-0.1
			c-4.7-0.1-9.4-0.1-14.1-0.1c-0.9,0-1.2,0.5-0.6,1.3c0.7,0.8,1.6,1.4,2.2,2.3c0.9,1.2,2.8,1.7,2.8,3.6c-2.1,0-4.2,0-6.3,0
			c0-2.4-0.1-4.7-0.1-7.1C344.9,46.9,344.9,40.9,344.9,34.9z"/>
		<path class="st10" d="M345,59.9c2.1,0,4.2,0,6.3,0c2.2,0.2,4.5,0.4,6.7,0.6c1.8,0.1,3.7,0,5.5,0c1.7,0,3.4,0,5.1,0
			c0.4,0,1-0.4,1.1-0.8c0.1-0.3-0.1-0.9-0.4-1.2c-1.5-1.5-3.2-3-4.7-4.6c-0.3-0.3-0.4-0.7-0.6-1c0.7-0.1,1.3-0.1,2-0.2
			c1.6,0,3.1,0,4.7,0.1c0.2,0.2,0.4,0.3,0.6,0.5c0,7.6,0,15.2,0,22.7c0,0.2,0,0.4,0,0.6c0,0.5,0,0.9,0,1.4c-0.4,0-0.7,0-1.1,0
			c-0.3-0.2-0.5-0.4-0.8-0.7c-0.4-0.4-0.8-0.7-1.2-1.1c-0.3-0.4-0.6-0.9-0.9-1.3c0.3-0.3,0.8-0.6,0.8-0.9c0.1-1.5,0.1-3,0-4.6
			c0-0.3-0.5-0.9-0.8-0.9c-1.7-0.2-3.5-0.3-5.3-0.3c-0.4,0-0.7,0.3-1.1,0.5c-0.6-0.6-1.1-1.1-1.7-1.7c-1.9-1.9-3.9-3.8-5.8-5.7
			c-0.7-0.7-1.4-1.1-2.4-1c-1.7,0.1-3.4,0.1-5.1,0C345.7,60.4,345.4,60.1,345,59.9z"/>
		<path class="st11" d="M331.6,10.7c0,1.3-0.1,2.6,0,3.9c0.1,1.2-0.4,1.5-1.5,1.4c-4.3-0.1-8.6,0-13,0c-0.3,0-0.6,0-0.9,0
			c-0.6-0.8-1.2-1.6-1.9-2.3c-0.8-0.9-1.7-1.7-2.6-2.6c0.1-0.1,0.1-0.2,0.2-0.4c6.4,0,12.9,0,19.3,0
			C331.4,10.7,331.5,10.7,331.6,10.7L331.6,10.7z"/>
		<path class="st5" d="M373.7,86.9c0.5,0.5,0.9,0.9,1.4,1.4c1,1,2,2,3.1,3.1c0.5,0.5,0.9,0.9,1.4,1.4c0,0.1,0.1,0.3,0.1,0.4
			c0.2,0.4,0.4,0.8,0.6,1.3c-0.5,0.1-1,0.2-1.4,0.2c-2.8,0-5.6,0-8.5,0c-0.7-0.9-1.5-1.8-2.2-2.8c0-2,0-3.9,0-5.9
			c0-1.3,0.2-2.6,0.3-3.9c0.3,0.1,0.5,0.3,0.8,0.4c0.5,0.5,0.9,0.9,1.4,1.4C371.7,84.8,372.7,85.8,373.7,86.9z"/>
		<path class="st12" d="M359.4,67.1c0.6,0.6,1.1,1.1,1.7,1.7c0,0.1,0,0.2,0,0.3c-0.5,0-1,0-1.4,0c-0.6,0-1.2,0.1-1.7,0
			c-1-0.1-1,0.4-0.7,1.1c-1-0.6-1.4,0-1.7,0.8c-0.3-0.1-0.6-0.3-0.9-0.3c-0.6,0-1.1,0.2-1.7,0.3c-0.3,0.1-0.6,0.2-0.9,0.3
			c0.3,0.2,0.8,0.7,0.9,0.6c0.9-0.6,1.7,0,2.5,0.1c0,0.2,0,0.4,0,0.6c-0.7,0-1.2,0.3-1.1,1.1c0.1,0.7-0.1,1.7,1.1,1.7
			c0,0.5,0,0.9,0,1.4c-0.7-0.4-1.5-0.7-2.1-1.1c-1-0.8-2-1.7-2.9-2.7c-0.3-0.3-0.8-0.9-0.7-1.2c0.3-0.9-0.4-1-0.9-1.2
			c-0.4-0.2-0.9-0.3-1.7-0.5c0.7-0.4,1.1-0.7,1.5-0.7c1.8-0.1,3.7,0,5.5,0c0.3,0,0.7,0,1,0c-0.2-0.3-0.5-0.5-0.7-0.8
			c0.6-0.1,1.2-0.2,1.8-0.2c0.7,0,1.5,0.1,2.2,0.1C359.1,68.4,359.5,67.9,359.4,67.1z"/>
		<path class="st13" d="M331.6,10.7c-0.1,0-0.2,0-0.3,0c0-2.6,0-5.3,0.1-7.9c0-0.5,0.2-0.9,0.3-1.4c0.4,0.2,0.8,0.4,1.1,0.7
			c6.7,6.7,13.4,13.4,20.2,20.1c0.6,0.6,1.3,1,1.9,1.5c0,0.1,0,0.2,0,0.3c-0.6-0.1-1.3-0.2-1.9-0.3c-0.2-0.4-0.3-1-0.7-1.3
			C345.9,16,339.4,9.6,333,3.1c-0.2-0.2-0.5-0.4-1.1-0.9c0,2.4,0,4.5,0,6.6C331.8,9.5,331.7,10.1,331.6,10.7z"/>
		<path class="st14" d="M354.4,68.5c0.2,0.3,0.5,0.5,0.7,0.8c-0.3,0-0.7,0-1,0c-1.8,0-3.7-0.1-5.5,0c-0.4,0-0.8,0.4-1.5,0.7
			c0.8,0.2,1.3,0.3,1.7,0.5c0.5,0.2,1.2,0.3,0.9,1.2c-0.1,0.3,0.4,0.9,0.7,1.2c0.9,0.9,1.9,1.8,2.9,2.7c0.6,0.5,1.4,0.8,2.1,1.1
			c0,0.5,0,0.9,0,1.4c-0.2,0.1-0.4,0.2-0.5,0.3c-3.2-3.1-6.3-6.3-9.5-9.4c0.5-0.2,1-0.4,1.4-0.5C349.4,68.5,351.9,68.5,354.4,68.5z"
			/>
		<path class="st14" d="M357.1,70.2c-0.2-0.7-0.3-1.2,0.7-1.1c0.6,0.1,1.2,0,1.7,0c0.4,0.5,0.7,0.9,1.1,1.4c0.3,0.3,0.6,0.7,0.8,1
			c-0.4,0.1-0.8,0.3-1.2,0.4c-0.1,0-0.2,0.1-0.4,0.2c1,0.9,2,1.8,3,2.7c0.4,0.4,1.2,0.6,1.4,1c0.7,1.6,2,2.7,3.5,3.5
			c0.1,0.4,0.2,0.7,0.3,1.1c0,0.2,0,0.4,0,0.6c-0.1,0-0.2,0-0.3,0c-3.2-3.2-6.5-6.5-9.7-9.7c0-0.4,0-0.8,0-1.2
			c-0.2,0.1-0.4,0.3-0.6,0.4C357.5,70.4,357.3,70.3,357.1,70.2z"/>
		<path class="st13" d="M372.7,46.6c1,0.7,2,1.4,3,2.1c0-8.1,0-16.5,0-24.8c0.2,0.4,0.5,0.7,0.5,1.1c0,7.9,0,15.7,0,23.6
			c0,0.4-0.2,0.8-0.3,1.2c-0.4-0.2-0.8-0.3-1.1-0.6C374.1,48.3,373.4,47.4,372.7,46.6z"/>
		<path class="st12" d="M370.5,94.6c2.8,0,5.6,0,8.5,0c0.5,0,1-0.2,1.4-0.2c-0.2-0.4-0.4-0.8-0.6-1.3c-0.1-0.1-0.1-0.3-0.1-0.4
			c0.6,0.4,1.2,0.8,1.8,1.2c0.1,0.1-0.1,0.8-0.3,0.9c-0.5,0.2-1.1,0.3-1.6,0.3c-7.4,0-14.9,0-22.3,0c-0.6,0-1.2-0.2-1.7-0.3
			c0-0.1,0-0.2,0-0.2C360.5,94.6,365.5,94.6,370.5,94.6z"/>
		<path class="st4" d="M332.7,63c1.6,0,3.3,0,4.9,0c0,1.5,0,2.9,0,4.4c-1.6-0.2-2.5-1.4-3.5-2.4C333.5,64.4,333.2,63.6,332.7,63z"/>
		<path class="st12" d="M368.2,80.4c-0.1-0.4-0.2-0.7-0.3-1.1c0-0.6,0-1.3,0-1.9c0.1-0.4,0.2-0.8,0.3-1.2c0.4,0.4,0.8,0.7,1.2,1.1
			c-0.6,0.1-1,0.2-0.8,1C368.7,79,368.4,79.7,368.2,80.4z"/>
		<path class="st13" d="M368.3,42.1c1.4,0.4,2.3,1.3,2.8,2.8C370.1,43.9,369.2,43,368.3,42.1z"/>
		<path class="st12" d="M378.2,91.3c-1-1-2-2-3.1-3.1C376.6,88.9,377.6,89.9,378.2,91.3z"/>
		<path class="st12" d="M373.7,86.9c-1-1-2-2-3-3.1C372.1,84.4,373.1,85.4,373.7,86.9z"/>
		<path class="st12" d="M346.9,68.5c-0.5,0.2-1,0.4-1.4,0.5c-0.3,0-0.5,0-0.8,0c-0.3-0.9,0.2-1,1-0.9
			C346,68.3,346.4,68.4,346.9,68.5z"/>
		<path class="st13" d="M371.2,44.9c0.5,0.5,0.9,0.9,1.4,1.4C372.2,45.9,371.7,45.4,371.2,44.9z"/>
		<path class="st13" d="M366.8,40.7c0-0.1,0-0.2,0-0.3c0.4,0.5,0.9,1,1.3,1.5C367.7,41.5,367.3,41.1,366.8,40.7z"/>
		<path class="st12" d="M370.2,78c0.4,0,0.7,0,1.1,0c-0.1,0.3-0.2,0.6-0.3,1C370.7,78.6,370.5,78.3,370.2,78z"/>
		<path class="st12" d="M368,81c0.1,0,0.2,0,0.3,0c0.3,0.5,0.7,1,1,1.4c-0.3-0.1-0.5-0.3-0.8-0.4C368.3,81.7,368.1,81.3,368,81z"/>
		<path class="st12" d="M345.2,94.7c0.3,0,0.6,0,0.9,0C345.8,94.7,345.5,94.7,345.2,94.7z"/>
		<path class="st12" d="M371.3,53.2c-0.2-0.2-0.4-0.3-0.6-0.5C370.9,52.9,371.1,53.1,371.3,53.2z"/>
		<path class="st3" d="M306.6,63c0,0.2,0,0.3-0.1,0.5c-0.1-0.1-0.3-0.3-0.4-0.4C306.3,63.1,306.5,63,306.6,63z"/>
		<path class="st12" d="M344.6,93.7c0,0.2,0,0.4,0,0.6c-0.1-0.1-0.3-0.2-0.4-0.3C344.3,93.9,344.5,93.8,344.6,93.7z"/>
		<path class="st12" d="M371.3,76.6c0-0.2,0-0.4,0-0.6C371.3,76.2,371.3,76.4,371.3,76.6z"/>
		<path class="st3" d="M306.6,63.5c0.1,0.1,0.2,0.2,0.3,0.3C306.8,63.7,306.7,63.6,306.6,63.5z"/>
		<path class="st12" d="M344.6,94.3c0.1,0.1,0.2,0.2,0.2,0.3C344.8,94.5,344.7,94.4,344.6,94.3z"/>
		<path class="st15" d="M366.3,39.9c-0.8-0.6-1.6-1.2-2.2-1.9c-1.2-1.3-2.4-2.6-3.6-3.9c1.5,0.1,2.9,0.1,4.4,0.3
			c0.5,0.1,1,0.7,1.1,1.2c0.2,0.7,0.1,1.6,0.1,2.3C366.1,38.6,366.2,39.3,366.3,39.9z"/>
		<path class="st16" d="M353,23.8c0.6,0.1,1.3,0.2,1.9,0.3c0.3,0.4,0.6,0.8,0.9,1.3c0.4,0.6,0.9,1.2,1.4,1.8
			c-0.1,0.1-0.2,0.2-0.3,0.3c-0.2,0-0.4,0-0.6,0c-2.5,0.5-4.1-1.2-5.6-2.7c-0.1-0.1,0.2-0.9,0.4-0.9C351.7,23.7,352.3,23.8,353,23.8
			z"/>
		<path class="st7" d="M356.9,27.4c0.1-0.1,0.2-0.2,0.3-0.3c0.1,0.1,0.3,0.3,0.4,0.4C357.3,27.5,357.1,27.4,356.9,27.4z"/>
		<path class="st15" d="M368,81c0.2,0.4,0.4,0.7,0.6,1.1c-0.1,1.3-0.2,2.6-0.3,3.9c0,2,0,3.9,0,5.9c-0.3-0.3-0.7-0.6-1-0.9
			c-3.5-3.5-6.9-6.9-10.4-10.4c-0.4-0.4-0.9-0.6-1.3-1c0-0.1,0-0.2,0-0.3c0-0.3,0-0.7,0-1c0-0.5,0-0.9,0-1.4c0-0.5,0-0.9,0-1.4
			c0-0.9,0-1.9,0-2.8c0-0.2,0-0.4,0-0.6c0-0.4,0-0.7,0-1.1c0.3-0.8,0.7-1.4,1.7-0.8c0.2,0.1,0.4,0.2,0.5,0.3
			c0.2,0.3,0.4,0.5,0.6,0.8C361.5,74.5,364.7,77.8,368,81z"/>
		<path class="st17" d="M355.5,79.6c0.4,0.3,0.9,0.6,1.3,1c3.5,3.5,6.9,6.9,10.4,10.4c0.3,0.3,0.7,0.6,1,0.9
			c0.7,0.9,1.5,1.8,2.2,2.8c-5,0-10,0-15,0C355.5,89.6,355.5,84.6,355.5,79.6z"/>
		<path class="st12" d="M355.4,78.2c0,0.3,0,0.7,0,1c-0.2-0.3-0.4-0.5-0.6-0.7C355.1,78.4,355.3,78.3,355.4,78.2z"/>
		<path class="st16" d="M364.1,52.9c0.2,0.4,0.3,0.8,0.6,1c1.6,1.5,3.2,3,4.7,4.6c0.3,0.3,0.6,0.9,0.4,1.2c-0.2,0.4-0.7,0.7-1.1,0.8
			c-1.7,0.1-3.4,0-5.1,0c-1.8,0-3.7,0.1-5.5,0c-2.2-0.1-4.5-0.4-6.7-0.6c0-1.9-1.9-2.4-2.8-3.6c-0.6-0.8-1.5-1.5-2.2-2.3
			c-0.6-0.7-0.3-1.3,0.6-1.3c4.7,0,9.4,0.1,14.1,0.1c0.8,0,1.5,0.1,2.3,0.1C363.6,52.9,363.8,52.9,364.1,52.9z"/>
		<path class="st8" d="M361.1,69c0-0.1,0-0.2,0-0.3c0.4-0.2,0.7-0.5,1.1-0.5c1.8,0,3.5,0.1,5.3,0.3c0.3,0,0.8,0.6,0.8,0.9
			c0.1,1.5,0.1,3,0,4.6c0,0.3-0.5,0.6-0.8,0.9c-0.8-0.8-1.6-1.5-2.5-2.3c-0.3-0.3-0.5-0.6-0.8-0.8c-0.5-0.4-0.9-0.9-1.4-1.3
			C362.1,70,361.6,69.5,361.1,69z"/>
		<path class="st14" d="M364.9,72.6c0.8,0.8,1.6,1.5,2.5,2.3c0.3,0.4,0.6,0.9,0.9,1.3c-0.1,0.4-0.2,0.8-0.3,1.2
			c-0.5-0.5-1-0.9-1.4-1.4c-0.8-0.9-1.4-2.2-2.4-2.8c-1.2-0.7-1.9-1.3-1.5-2.7c0.5,0.4,0.9,0.9,1.4,1.3
			C364.4,72.1,364.6,72.4,364.9,72.6z"/>
		<path class="st3" d="M362.7,70.5c-0.5,1.4,0.3,2,1.5,2.7c1,0.6,1.6,1.9,2.4,2.8c0.4,0.5,0.9,0.9,1.4,1.4c0,0.6,0,1.3,0,1.9
			c-1.5-0.8-2.8-1.9-3.5-3.5c-0.2-0.5-1-0.6-1.4-1c-1-0.9-2-1.8-3-2.7c0.2-0.1,0.3-0.2,0.4-0.2c0.4-0.2,0.8-0.3,1.2-0.4
			c-0.3-0.3-0.6-0.7-0.8-1c-0.4-0.4-0.7-0.9-1.1-1.4c0.5,0,1,0,1.4,0C361.6,69.5,362.1,70,362.7,70.5z"/>
		<path class="st14" d="M355.4,71c0,0.4,0,0.7,0,1.1c-0.8-0.1-1.6-0.7-2.6-0.1c-0.1,0.1-0.6-0.4-0.9-0.6c0.3-0.1,0.6-0.3,0.9-0.3
			c0.6-0.1,1.1-0.3,1.7-0.3C354.9,70.7,355.2,70.9,355.4,71z"/>
		<path class="st14" d="M355.4,72.7c0,0.9,0,1.9,0,2.8c-1.2,0-1-1-1.1-1.7C354.3,73,354.7,72.6,355.4,72.7z"/>
		<path class="st12" d="M358.2,71.3c-0.2-0.3-0.4-0.5-0.6-0.8c0.2-0.1,0.4-0.3,0.6-0.4C358.3,70.4,358.3,70.9,358.2,71.3z"/>
		<path class="st10" d="M364.9,72.6c-0.3-0.3-0.5-0.6-0.8-0.8C364.4,72.1,364.6,72.4,364.9,72.6z"/>
	</g>
	<g>
		<path class="st18" d="M500,35.6c-0.2,1-0.4,2-0.6,2.9c-2.7,12.8-5.5,25.7-8.2,38.5c-0.2,0.8-0.6,1.2-1.3,1.4
			c-13.4,4.3-26.8,8.7-40.1,13c-0.9,0.3-1.5,0.1-2.2-0.5c-10.5-9.5-21-18.9-31.5-28.4c-0.5-0.4-0.6-0.9-0.5-1.5
			c2.9-13.8,5.9-27.6,8.7-41.4c0.2-1.1,0.8-1.5,1.8-1.9c11-3.6,22-7.1,33-10.7c2.3-0.7,4.6-1.5,6.9-2.2c0.8-0.3,1.4-0.1,2,0.4
			c8.5,7.7,17,15.3,25.4,23c1.7,1.6,3.5,3.1,5.3,4.7C499.4,33.8,500,34.5,500,35.6z M457.7,79.1c5.6,0,11.2,0,16.8,0
			c0.7,0,1.1-0.2,1.5-0.8c1.7-3,3.5-6,5.2-9c2.1-3.7,4.2-7.4,6.4-11c1.6-2.8,3.3-5.7,4.9-8.5c0.6-1,0.6-1.9,0.1-2.8
			c-1-1.7-2-3.3-3-5c-4.4-7.6-8.7-15.3-13.1-22.9c-0.6-1.1-1.4-1.6-2.8-1.6c-10.8,0.1-21.6,0-32.4,0c-1,0-1.7,0.3-2.1,1.2
			c-2,3.6-4.1,7.1-6.2,10.7c-3.5,6.1-7,12.1-10.5,18.2c-0.2,0.4-0.3,1-0.1,1.4c1.3,2.3,2.6,4.6,4,7c4.3,7.4,8.5,14.9,12.8,22.4
			c0.4,0.7,0.8,0.9,1.6,0.9C446.5,79.1,452.1,79.1,457.7,79.1z"/>
		<path class="st19" d="M457.8,79.1c-5.6,0-11.2,0-16.8,0c-0.8,0-1.2-0.3-1.6-0.9c-4.3-7.5-8.5-14.9-12.8-22.4c-1.3-2.3-2.7-4.6-4-7
			c-0.2-0.3-0.1-1,0.1-1.4c3.5-6.1,7-12.1,10.5-18.2c2.1-3.6,4.1-7.1,6.2-10.7c0.5-0.8,1.1-1.2,2.1-1.2c10.8,0,21.6,0,32.4,0
			c1.4,0,2.2,0.5,2.8,1.6c4.4,7.6,8.7,15.3,13.1,22.9c1,1.7,2,3.3,3,5c0.6,0.9,0.5,1.8-0.1,2.8c-1.7,2.8-3.3,5.6-4.9,8.5
			c-2.1,3.7-4.2,7.4-6.4,11c-1.7,3-3.5,6-5.2,9c-0.4,0.7-0.8,0.8-1.5,0.8C469,79.1,463.4,79.1,457.8,79.1z M457.7,68.2
			C457.7,68.2,457.7,68.2,457.7,68.2c3.4,0,6.8,0,10.3,0c1,0,1.5-0.3,2-1.2c1.7-3.1,3.5-6.2,5.3-9.2c1.6-2.8,3.3-5.7,4.9-8.5
			c0.2-0.4,0.4-1.2,0.1-1.6c-3.5-6.2-7.1-12.3-10.6-18.5c-0.3-0.6-0.8-0.8-1.5-0.8c-7,0-13.9,0-20.9,0c-0.7,0-1.2,0.2-1.5,0.9
			c-3.5,6.1-7,12.1-10.5,18.2c-0.4,0.6-0.4,1.2,0,1.8c3.5,6,7,12.1,10.4,18.1c0.4,0.7,0.9,0.9,1.6,0.9
			C450.8,68.2,454.3,68.2,457.7,68.2z"/>
	</g>
</g>
</svg>
